<?xml version="1.0" encoding="UTF-8" standalone="no"?>
<svg
   xmlns:dc="http://purl.org/dc/elements/1.1/"
   xmlns:cc="http://creativecommons.org/ns#"
   xmlns:rdf="http://www.w3.org/1999/02/22-rdf-syntax-ns#"
   xmlns:svg="http://www.w3.org/2000/svg"
   xmlns="http://www.w3.org/2000/svg"
   xmlns:sodipodi="http://sodipodi.sourceforge.net/DTD/sodipodi-0.dtd"
   xmlns:inkscape="http://www.inkscape.org/namespaces/inkscape"
   width="252.85101mm"
   height="74.800537mm"
   viewBox="0 0 252.85101 74.800537"
   version="1.1"
   id="svg913"
   inkscape:version="1.0 (4035a4fb49, 2020-05-01)"
   sodipodi:docname="logo_uc3m.svg">
  <defs
     id="defs907" />
  <sodipodi:namedview
     id="base"
     pagecolor="#ffffff"
     bordercolor="#666666"
     borderopacity="1.0"
     inkscape:pageopacity="0.0"
     inkscape:pageshadow="2"
     inkscape:zoom="0.35"
     inkscape:cx="423.54298"
     inkscape:cy="138.49819"
     inkscape:document-units="mm"
     inkscape:current-layer="layer1"
     inkscape:document-rotation="0"
     showgrid="false"
     fit-margin-top="0"
     fit-margin-left="0"
     fit-margin-right="0"
     fit-margin-bottom="0"
     inkscape:window-width="1218"
     inkscape:window-height="864"
     inkscape:window-x="2076"
     inkscape:window-y="341"
     inkscape:window-maximized="0" />
  <metadata
     id="metadata910">
    <rdf:RDF>
      <cc:Work
         rdf:about="">
        <dc:format>image/svg+xml</dc:format>
        <dc:type
           rdf:resource="http://purl.org/dc/dcmitype/StillImage" />
        <dc:title></dc:title>
      </cc:Work>
    </rdf:RDF>
  </metadata>
  <g
     inkscape:label="Capa 1"
     inkscape:groupmode="layer"
     id="layer1"
     transform="translate(6.2290808,-111.52235)">
    <g
       id="g843"
       transform="matrix(0.03527778,0,0,-0.03527778,-6.2290808,186.32289)">
      <path
         d="m 3997.1,944.988 c -40.5,-43.468 -100.52,-72.457 -164.62,-72.457 -122.54,0 -221.87,99.328 -221.87,221.869 0,122.54 99.33,221.88 221.87,221.88 64.81,0 123.73,-27.79 164.29,-72.11 l 0.53,175.17 c -49.2,24.83 -105.47,38.82 -164.35,38.82 -200.93,0 -363.81,-162.89 -363.81,-363.82 0,-200.93 162.88,-363.809 363.81,-363.809 59.01,0 115.07,14.039 164.35,38.981 l -0.2,175.476"
         style="fill:#2e2c6d;fill-opacity:1;fill-rule:nonzero;stroke:none"
         id="path845" />
      <path
         d="m 4209.13,990.629 c 0,77.051 62.46,139.521 139.51,139.521 77.06,0 139.52,-62.47 139.52,-139.521 0,-77.047 -62.46,-139.508 -139.52,-139.508 -77.05,0 -139.51,62.461 -139.51,139.508 z m 278.35,-222.348 c -39.98,-24.801 -88.33,-39.121 -138.84,-39.121 -144.4,0 -261.47,117.059 -261.47,261.469 0,144.411 117.07,261.471 261.47,261.471 51.18,0 98.53,-14.69 138.84,-40.1 v 40.1 h 122.64 V 729.16 h -122.64 v 39.121"
         style="fill:#2e2c6d;fill-opacity:1;fill-rule:evenodd;stroke:none"
         id="path847" />
      <path
         d="m 4973.69,1109.92 c -12.49,7.1 -26.85,11.16 -42.24,11.16 -47.4,0 -86.32,-38.42 -86.32,-85.81 V 729.16 h -131.59 l 0.51,523.66 h 131.12 l 0.97,-32.31 c 30.83,20.32 67.5,32.15 107.19,32.15 h 0.56 c 6.46,0 13.49,-0.32 19.8,-0.95 v -141.79"
         style="fill:#2e2c6d;fill-opacity:1;fill-rule:nonzero;stroke:none"
         id="path849" />
      <path
         d="m 5377.9,990.871 c 0,77.089 62.49,139.579 139.58,139.579 77.08,0 139.57,-62.49 139.57,-139.579 0,-77.082 -62.49,-139.57 -139.57,-139.57 -77.09,0 -139.58,62.488 -139.58,139.57 z m -122.14,0 c 0,144.539 117.17,261.709 261.71,261.709 144.54,0 261.71,-117.17 261.71,-261.709 0,-144.539 -117.17,-261.711 -261.71,-261.711 -144.54,0 -261.71,117.172 -261.71,261.711"
         style="fill:#2e2c6d;fill-opacity:1;fill-rule:evenodd;stroke:none"
         id="path851" />
      <path
         d="m 6110.55,1118.22 69.62,70.92 c -39.27,38.97 -93.35,63.06 -153.05,63.06 -21.42,0 -41.61,-3.11 -61.16,-8.88 -71.05,-21.91 -124.01,-86.92 -124.01,-165.16 0,-5.23 0.49,-10.42 0.95,-15.54 6.32,-43.8 38.69,-79.038 79.35,-93.331 l 121.48,-46.328 c 18.94,-7.852 25.87,-21.34 25.87,-39.02 0,-37.48 -42.83,-48.472 -73.2,-48.472 -46.39,0 -86.72,21.429 -112.72,55.761 l -68.81,-68.242 c 43.61,-56.976 112.25,-93.828 189.53,-93.828 46.54,0 89.52,13.379 126.22,36.422 42.66,27.578 70.9,75.559 70.9,130.137 0,64.472 -38.19,118.931 -94.23,142.231 l -90.98,34.24 c -17.89,5.91 -30.74,19.34 -30.74,38.55 0,23.2 18.85,42.55 42.06,42.55 32.79,0 61.55,-13.53 82.92,-35.07"
         style="fill:#2e2c6d;fill-opacity:1;fill-rule:nonzero;stroke:none"
         id="path853" />
      <path
         d="m 5053.41,1457.81 h 130.82 V 729.16 h -130.82 v 728.65"
         style="fill:#2e2c6d;fill-opacity:1;fill-rule:evenodd;stroke:none"
         id="path855" />
      <path
         d="m 2907.04,2119.13 h 67 V 5.28906 h -67 V 2119.13"
         style="fill:#2e2c6d;fill-opacity:1;fill-rule:evenodd;stroke:none"
         id="path857" />
      <path
         d="m 906.645,1080.67 c -29.551,28.56 -69.891,46.13 -114.247,46.13 -72.992,0 -132.351,-59.23 -132.351,-132.218 0,-72.992 59.168,-132.223 132.156,-132.223 44.613,0 84.824,17.77 114.442,46.621 V 756.762 c -34.5,-16.571 -73.61,-25.852 -114.442,-25.852 -145.625,0 -263.676,118.039 -263.676,263.672 0,145.618 118.051,263.668 263.676,263.668 40.887,0 79.906,-9.31 114.442,-25.91 v -151.67"
         style="fill:#2e2c6d;fill-opacity:1;fill-rule:nonzero;stroke:none"
         id="path859" />
      <path
         d="M 329.711,1260.04 V 961.641 c 0,-54.571 -44.336,-98.809 -98.906,-98.809 -54.571,0 -98.809,44.238 -98.809,98.809 V 1260.04 H 0 V 961.73 C 0,834.211 103.367,730.84 230.883,730.84 c 127.515,0 231.082,103.371 231.082,230.89 v 298.31 H 329.711"
         style="fill:#2e2c6d;fill-opacity:1;fill-rule:evenodd;stroke:none"
         id="path861" />
      <path
         d="m 1237.32,1325.32 -76.25,-198.36 92.2,-0.07 -1.88,-0.22 c 72.99,0 131.96,-59.17 131.96,-132.158 0,-72.992 -59.16,-132.153 -132.15,-132.153 -72.99,0 -132.15,59.161 -132.15,132.153 l -131.429,-0.25 c 0,-145.633 117.959,-263.422 263.579,-263.422 145.63,0 263.67,118.051 263.67,263.672 0,112.548 -70.32,208.628 -169.58,246.468 l 84.19,217.66 -407.83,-0.99 v -132.21 l 215.67,-0.12"
         style="fill:#2e2c6d;fill-opacity:1;fill-rule:evenodd;stroke:none"
         id="path863" />
      <path
         d="m 2027.49,1182.98 c -39.23,46.81 -98.13,76.57 -163.98,76.57 -43.12,0 -83.08,-12.76 -116.66,-34.72 l 0.49,34.59 H 1615.69 V 731.238 h 131.65 l 0.6,297.502 c 0,54.58 44.04,98.81 98.61,98.81 54.58,0 98.6,-44.55 98.6,-99.13 V 731.238 h 132.37 l 0.05,297.502 c 0,54.58 44.05,98.81 98.62,98.81 54.57,0 98.81,-44.23 98.81,-98.81 l -0.22,-297.502 h 132.27 l 0.39,314.552 c 0,118.47 -96.48,213.76 -214.95,213.76 -66.32,0 -125.65,-29.29 -165,-76.57"
         style="fill:#2e2c6d;fill-opacity:1;fill-rule:evenodd;stroke:none"
         id="path865" />
      <path
         d="m 6438.44,1459.38 h 159.41 V 730.73 h -159.41 v 728.65"
         style="fill:#2e2c6d;fill-opacity:1;fill-rule:evenodd;stroke:none"
         id="path867" />
      <path
         d="m 7008.02,1459.38 h 159.41 V 730.73 h -159.41 v 728.65"
         style="fill:#2e2c6d;fill-opacity:1;fill-rule:evenodd;stroke:none"
         id="path869" />
      <path
         d="m 6723.23,1459.38 h 159.41 V 730.73 h -159.41 v 728.65"
         style="fill:#2e2c6d;fill-opacity:1;fill-rule:evenodd;stroke:none"
         id="path871" />
      <path
         d="m 3466.67,1794.38 0.33,324.04 h 54.3 l -0.15,-324.04 c 0,-83.39 67.59,-150.99 150.98,-150.99 83.38,0 152.61,67.61 152.61,150.99 l -0.89,324.04 h 54.3 l -0.12,-324.04 c 0,-113.47 -92.43,-205.45 -205.9,-205.45 -113.47,0 -205.46,91.98 -205.46,205.45"
         style="fill:#2e2c6d;fill-opacity:1;fill-rule:evenodd;stroke:none"
         id="path873" />
      <path
         d="m 4005.91,1817.67 c 0,55.28 43.92,100.1 99.21,100.1 55.28,0 100.1,-44.82 100.1,-100.1 l 0.33,-228.74 h 54.29 l 0.45,233.04 c 0,82.6 -67.97,149.87 -150.58,149.87 -40.41,0 -77.22,-16.71 -104.13,-42.76 v 43.31 h -54.31 v -383.46 h 54.31 l 0.33,228.74"
         style="fill:#2e2c6d;fill-opacity:1;fill-rule:evenodd;stroke:none"
         id="path875" />
      <path
         d="m 4310.35,2081.97 c 0,19.97 16.19,36.16 36.16,36.16 19.96,0 36.16,-16.19 36.16,-36.16 0,-19.97 -16.2,-36.15 -36.16,-36.15 -19.97,0 -36.16,16.18 -36.16,36.15 z m 9.01,-108.88 h 54.3 v -384.16 h -54.3 v 384.16"
         style="fill:#2e2c6d;fill-opacity:1;fill-rule:evenodd;stroke:none"
         id="path877" />
      <path
         d="m 4612.94,1588.93 -190.1,388.89 h 61.11 l 128.47,-264.96 125.5,264.96 h 61.11 l -186.09,-388.89"
         style="fill:#2e2c6d;fill-opacity:1;fill-rule:evenodd;stroke:none"
         id="path879" />
      <path
         d="m 4870.52,1808.91 c 12.71,63.14 68.04,110.7 134.93,110.7 66.71,0 122.37,-47.3 135.27,-110.2 z m 231.34,-126.68 c -24.85,-24.02 -59.13,-38.79 -96.41,-38.79 -67.09,0 -122.99,47.84 -135.48,111.26 l 326.22,-0.11 c 1.23,8.8 1.86,17.8 1.86,26.94 0,106.37 -86.23,192.6 -192.6,192.6 -106.37,0 -192.61,-86.23 -192.61,-192.6 0,-106.38 86.24,-192.6 192.61,-192.6 52.6,0 100.85,21.07 135.73,55.25 l -39.32,38.05"
         style="fill:#2e2c6d;fill-opacity:1;fill-rule:evenodd;stroke:none"
         id="path881" />
      <path
         d="m 5448.65,1968.33 c -10.42,2.3 -21.14,3.51 -32.21,3.51 -40.42,0 -77.23,-16.71 -104.14,-42.76 v 43.31 H 5258 v -383.46 h 54.3 l 0.33,228.74 c 0,55.28 43.92,100.1 99.21,100.1 12.79,0 25.56,-2.4 36.81,-6.77 v 57.33"
         style="fill:#2e2c6d;fill-opacity:1;fill-rule:evenodd;stroke:none"
         id="path883" />
      <path
         d="m 6389.34,1781.53 c 0,76.26 61.82,138.08 138.08,138.08 76.27,0 138.09,-61.82 138.09,-138.08 0,-76.27 -61.82,-138.09 -138.09,-138.09 -76.26,0 -138.08,61.82 -138.08,138.09 z M 6666.6,1647.7 c -35.02,-36.24 -84.8,-58.77 -139.18,-58.77 -106.37,0 -192.6,86.22 -192.6,192.6 0,106.37 86.23,192.6 192.6,192.6 54.71,0 104.12,-22.54 139.18,-59.16 v 59.16 h 54.51 v -382.29 h -54.51 v 55.86"
         style="fill:#2e2c6d;fill-opacity:1;fill-rule:evenodd;stroke:none"
         id="path885" />
      <path
         d="m 5776.09,2081.97 c 0,19.97 16.19,36.16 36.16,36.16 19.96,0 36.15,-16.19 36.15,-36.16 0,-19.97 -16.19,-36.15 -36.15,-36.15 -19.97,0 -36.16,16.18 -36.16,36.15 z m 9,-108.88 h 54.3 v -384.16 h -54.3 v 384.16"
         style="fill:#2e2c6d;fill-opacity:1;fill-rule:evenodd;stroke:none"
         id="path887" />
      <path
         d="m 6828.99,1781.53 c 0,76.26 61.82,138.08 138.09,138.08 76.26,0 138.08,-61.82 138.08,-138.08 0,-76.27 -61.82,-138.09 -138.08,-138.09 -76.27,0 -138.09,61.82 -138.09,138.09 z m 277.26,-133.83 c -35.02,-36.24 -84.79,-58.77 -139.17,-58.77 -106.38,0 -192.61,86.22 -192.61,192.6 0,106.37 86.23,192.6 192.61,192.6 54.7,0 104.11,-22.54 139.17,-59.16 v 205.36 h 54.52 v -528.49 h -54.52 v 55.86"
         style="fill:#2e2c6d;fill-opacity:1;fill-rule:evenodd;stroke:none"
         id="path889" />
      <path
         d="m 5949.68,1781.53 c 0,76.26 61.82,138.08 138.09,138.08 76.26,0 138.08,-61.82 138.08,-138.08 0,-76.27 -61.82,-138.09 -138.08,-138.09 -76.27,0 -138.09,61.82 -138.09,138.09 z m 277.26,-133.83 c -35.02,-36.24 -84.79,-58.77 -139.17,-58.77 -106.37,0 -192.6,86.22 -192.6,192.6 0,106.37 86.23,192.6 192.6,192.6 54.7,0 104.11,-22.54 139.17,-59.16 v 205.36 h 54.52 v -528.49 h -54.52 v 55.86"
         style="fill:#2e2c6d;fill-opacity:1;fill-rule:evenodd;stroke:none"
         id="path891" />
      <path
         d="m 5553.79,1876.71 c -2.38,26.12 20.03,44.54 44.78,44.54 31.45,-0.52 52.88,-17.8 63.76,-40.57 l 44.39,25.25 c -22.89,44.72 -60.03,69.11 -104.22,69.11 -57.81,0 -104.75,-41.21 -106.52,-98.55 0,-49.61 29.93,-70.14 70.25,-91.85 l 78.13,-41.87 c 18.84,-12.56 26.65,-23.34 26.65,-45.77 -1.38,-27.22 -27.38,-52.89 -60.79,-52.89 -38.59,0 -63.91,22.44 -80.96,53.85 l -50.32,-24.57 c 19.65,-55.2 72.38,-84.46 125.11,-84.46 66.08,0 123,48.89 125.28,115.73 0,57.36 -41.24,82.55 -83.43,104.32 -43.58,24.23 -91.2,42.78 -92.11,67.73"
         style="fill:#2e2c6d;fill-opacity:1;fill-rule:evenodd;stroke:none"
         id="path893" />
      <path
         d="m 3521.4,195.898 c 0,76.274 61.82,138.09 138.09,138.09 76.26,0 138.08,-61.816 138.08,-138.09 0,-76.257 -61.82,-138.0777 -138.08,-138.0777 -76.27,0 -138.09,61.8207 -138.09,138.0777 z M 3798.66,62.082 c -35.02,-36.25 -84.79,-58.78122 -139.17,-58.78122 -106.37,0 -192.61,86.23052 -192.61,192.59722 0,106.372 86.24,192.602 192.61,192.602 54.7,0 104.11,-22.531 139.17,-59.16 v 205.359 h 54.52 V 6.21094 h -54.52 V 62.082"
         style="fill:#2e2c6d;fill-opacity:1;fill-rule:evenodd;stroke:none"
         id="path895" />
      <path
         d="m 3998.3,223.281 c 12.71,63.149 68.04,110.707 134.93,110.707 66.71,0 122.37,-47.308 135.27,-110.207 z M 4229.63,96.6094 c -24.84,-24.0196 -59.12,-38.7891 -96.4,-38.7891 -67.09,0 -123,47.8277 -135.49,111.2617 l 326.22,-0.121 c 1.24,8.809 1.87,17.801 1.87,26.937 0,106.372 -86.23,192.602 -192.6,192.602 -106.38,0 -192.61,-86.23 -192.61,-192.602 0,-106.3667 86.23,-192.59722 192.61,-192.59722 52.6,0 100.84,21.07812 135.73,55.25782 l -39.33,38.0508"
         style="fill:#2e2c6d;fill-opacity:1;fill-rule:evenodd;stroke:none"
         id="path897" />
      <path
         d="m 5414.6,195.898 c 0,76.274 61.83,138.09 138.09,138.09 76.26,0 138.08,-61.816 138.08,-138.09 0,-76.257 -61.82,-138.0777 -138.08,-138.0777 -76.26,0 -138.09,61.8207 -138.09,138.0777 z M 5691.87,62.082 c -35.03,-36.25 -84.8,-58.78122 -139.18,-58.78122 -106.38,0 -192.61,86.23052 -192.61,192.59722 0,106.372 86.23,192.602 192.61,192.602 54.7,0 104.11,-22.531 139.18,-59.16 v 59.16 h 54.51 V 6.21094 h -54.51 V 62.082"
         style="fill:#2e2c6d;fill-opacity:1;fill-rule:evenodd;stroke:none"
         id="path899" />
      <path
         d="m 5888.34,195.898 c 0,76.274 61.82,138.09 138.09,138.09 76.26,0 138.08,-61.816 138.08,-138.09 0,-76.257 -61.82,-138.0777 -138.08,-138.0777 -76.27,0 -138.09,61.8207 -138.09,138.0777 z M 6165.6,62.082 c -35.02,-36.25 -84.79,-58.78122 -139.17,-58.78122 -106.38,0 -192.61,86.23052 -192.61,192.59722 0,106.372 86.23,192.602 192.61,192.602 54.7,0 104.11,-22.531 139.17,-59.16 v 205.359 h 54.52 V 6.21094 H 6165.6 V 62.082"
         style="fill:#2e2c6d;fill-opacity:1;fill-rule:evenodd;stroke:none"
         id="path901" />
      <path
         d="m 6526.81,382.711 c -10.42,2.289 -21.14,3.5 -32.21,3.5 -40.42,0 -77.22,-16.711 -104.14,-42.762 v 43.313 h -54.3 V 3.30078 h 54.3 l 0.33,228.73822 c 0,55.293 43.92,100.109 99.21,100.109 12.79,0 25.56,-2.41 36.81,-6.777 v 57.34"
         style="fill:#2e2c6d;fill-opacity:1;fill-rule:evenodd;stroke:none"
         id="path903" />
      <path
         d="m 6614.25,496.352 c 0,19.968 16.19,36.148 36.16,36.148 19.96,0 36.15,-16.18 36.15,-36.148 0,-19.973 -16.19,-36.161 -36.15,-36.161 -19.97,0 -36.16,16.188 -36.16,36.161 z m 9.01,-108.883 h 54.29 V 3.30078 h -54.29 V 387.469"
         style="fill:#2e2c6d;fill-opacity:1;fill-rule:evenodd;stroke:none"
         id="path905" />
      <path
         d="m 6828.52,195.898 c 0,76.274 61.82,138.09 138.09,138.09 76.26,0 138.08,-61.816 138.08,-138.09 0,-76.257 -61.82,-138.0777 -138.08,-138.0777 -76.27,0 -138.09,61.8207 -138.09,138.0777 z M 7105.78,62.082 C 7070.76,25.832 7020.99,3.30078 6966.61,3.30078 6860.23,3.30078 6774,89.5313 6774,195.898 c 0,106.372 86.23,192.602 192.61,192.602 54.7,0 104.11,-22.531 139.17,-59.16 v 205.359 h 54.52 V 6.21094 h -54.52 V 62.082"
         style="fill:#2e2c6d;fill-opacity:1;fill-rule:evenodd;stroke:none"
         id="path907" />
      <path
         d="M 4928.76,123.93 5134.13,543.5 5272.64,9.83203 h -57.29 L 5117.79,387.609 4928.73,0 4739.73,387.609 4642.17,9.83203 h -57.3 L 4723.39,543.5 4928.76,123.93 v 0"
         style="fill:#2e2c6d;fill-opacity:1;fill-rule:evenodd;stroke:none"
         id="path909" />
    </g>
  </g>
</svg>
