<?xml version="1.0" encoding="UTF-8" standalone="no"?>
<svg
   xmlns:dc="http://purl.org/dc/elements/1.1/"
   xmlns:cc="http://creativecommons.org/ns#"
   xmlns:rdf="http://www.w3.org/1999/02/22-rdf-syntax-ns#"
   xmlns:svg="http://www.w3.org/2000/svg"
   xmlns="http://www.w3.org/2000/svg"
   xmlns:sodipodi="http://sodipodi.sourceforge.net/DTD/sodipodi-0.dtd"
   xmlns:inkscape="http://www.inkscape.org/namespaces/inkscape"
   sodipodi:docname="logo_uc3m_white.svg"
   inkscape:version="1.0 (4035a4fb49, 2020-05-01)"
   id="svg8"
   version="1.1"
   viewBox="0 0 252.85101 74.800187"
   height="74.800186mm"
   width="252.85101mm">
  <defs
     id="defs2" />
  <sodipodi:namedview
     inkscape:window-maximized="1"
     inkscape:window-y="332"
     inkscape:window-x="1912"
     inkscape:window-height="1017"
     inkscape:window-width="1920"
     fit-margin-bottom="0"
     fit-margin-right="0"
     fit-margin-left="0"
     fit-margin-top="0"
     showgrid="false"
     inkscape:document-rotation="0"
     inkscape:current-layer="g843"
     inkscape:document-units="mm"
     inkscape:cy="134.66162"
     inkscape:cx="-68.222194"
     inkscape:zoom="0.49497475"
     inkscape:pageshadow="2"
     inkscape:pageopacity="0.0"
     borderopacity="1.0"
     bordercolor="#666666"
     pagecolor="#ffffff"
     id="base" />
  <metadata
     id="metadata5">
    <rdf:RDF>
      <cc:Work
         rdf:about="">
        <dc:format>image/svg+xml</dc:format>
        <dc:type
           rdf:resource="http://purl.org/dc/dcmitype/StillImage" />
        <dc:title></dc:title>
      </cc:Work>
    </rdf:RDF>
  </metadata>
  <g
     transform="translate(-106.96781,-142.87107)"
     id="layer1"
     inkscape:groupmode="layer"
     inkscape:label="Capa 1">
    <g
       transform="matrix(0.03527778,0,0,-0.03527778,84.364276,291.79763)"
       id="g843">
      <path
         id="path847"
         style="fill:#ffffff;fill-opacity:1;fill-rule:nonzero;stroke:none"
         d="m 4637.83,3046.21 c -40.51,-43.48 -100.52,-72.47 -164.62,-72.47 -122.55,0 -221.87,99.34 -221.87,221.88 0,122.53 99.32,221.88 221.87,221.88 64.82,0 123.73,-27.8 164.29,-72.11 l 0.54,175.16 c -49.21,24.84 -105.48,38.82 -164.36,38.82 -200.93,0 -363.81,-162.89 -363.81,-363.81 0,-200.94 162.88,-363.82 363.81,-363.82 59.02,0 115.07,14.04 164.36,38.99 l -0.21,175.48" />
      <path
         id="path849"
         style="fill:#ffffff;fill-opacity:1;fill-rule:evenodd;stroke:none"
         d="m 4849.86,3091.85 c 0,77.05 62.46,139.51 139.52,139.51 77.06,0 139.52,-62.46 139.52,-139.51 0,-77.06 -62.46,-139.52 -139.52,-139.52 -77.06,0 -139.52,62.46 -139.52,139.52 z m 278.35,-222.36 c -39.98,-24.8 -88.33,-39.12 -138.83,-39.12 -144.41,0 -261.48,117.07 -261.48,261.48 0,144.4 117.07,261.47 261.48,261.47 51.17,0 98.52,-14.7 138.83,-40.11 v 40.11 h 122.64 v -522.95 h -122.64 v 39.12" />
      <path
         id="path851"
         style="fill:#ffffff;fill-opacity:1;fill-rule:nonzero;stroke:none"
         d="m 5614.41,3211.14 c -12.48,7.09 -26.84,11.15 -42.23,11.15 -47.39,0 -86.32,-38.42 -86.32,-85.81 v -306.11 h -131.59 l 0.52,523.67 h 131.11 l 0.98,-32.32 c 30.83,20.33 67.5,32.15 107.18,32.15 h 0.57 c 6.44,0 13.49,-0.32 19.78,-0.95 v -141.78" />
      <path
         id="path853"
         style="fill:#ffffff;fill-opacity:1;fill-rule:evenodd;stroke:none"
         d="m 6018.63,3092.08 c 0,77.09 62.48,139.58 139.57,139.58 77.09,0 139.58,-62.49 139.58,-139.58 0,-77.08 -62.49,-139.57 -139.58,-139.57 -77.09,0 -139.57,62.49 -139.57,139.57 z m -122.14,0 c 0,144.55 117.18,261.71 261.71,261.71 144.54,0 261.72,-117.16 261.72,-261.71 0,-144.54 -117.18,-261.71 -261.72,-261.71 -144.53,0 -261.71,117.17 -261.71,261.71" />
      <path
         id="path855"
         style="fill:#ffffff;fill-opacity:1;fill-rule:nonzero;stroke:none"
         d="m 6751.28,3219.43 69.62,70.92 c -39.27,38.98 -93.34,63.06 -153.05,63.06 -21.42,0 -41.6,-3.1 -61.16,-8.88 -71.05,-21.91 -124,-86.91 -124,-165.16 0,-5.23 0.48,-10.41 0.94,-15.54 6.32,-43.8 38.68,-79.04 79.35,-93.33 l 121.48,-46.33 c 18.94,-7.85 25.87,-21.33 25.87,-39.01 0,-37.48 -42.83,-48.47 -73.2,-48.47 -46.39,0 -86.72,21.43 -112.73,55.76 l -68.79,-68.25 c 43.6,-56.97 112.24,-93.83 189.53,-93.83 46.54,0 89.51,13.38 126.21,36.43 42.66,27.57 70.91,75.55 70.91,130.13 0,64.47 -38.2,118.93 -94.24,142.23 l -90.97,34.24 c -17.9,5.92 -30.74,19.34 -30.74,38.55 0,23.2 18.85,42.56 42.05,42.56 32.79,0 61.55,-13.54 82.92,-35.08" />
      <path
         id="path857"
         style="fill:#ffffff;fill-opacity:1;fill-rule:evenodd;stroke:none"
         d="m 5694.15,3559.02 h 130.81 v -728.65 h -130.81 v 728.65" />
      <path
         id="path859"
         style="fill:#ffffff;fill-opacity:1;fill-rule:evenodd;stroke:none"
         d="m 3547.77,4220.34 h 67 V 2106.5 h -67 v 2113.84" />
      <path
         id="path861"
         style="fill:#ffffff;fill-opacity:1;fill-rule:nonzero;stroke:none"
         d="m 1547.38,3181.88 c -29.55,28.56 -69.89,46.13 -114.25,46.13 -72.99,0 -132.35,-59.23 -132.35,-132.22 0,-72.99 59.17,-132.22 132.15,-132.22 44.62,0 84.83,17.78 114.45,46.62 v -152.22 c -34.5,-16.57 -73.62,-25.85 -114.45,-25.85 -145.62,0 -263.67,118.05 -263.67,263.67 0,145.63 118.05,263.67 263.67,263.67 40.89,0 79.91,-9.3 114.45,-25.91 v -151.67" />
      <path
         id="path863"
         style="fill:#ffffff;fill-opacity:1;fill-rule:evenodd;stroke:none"
         d="m 970.445,3361.25 v -298.39 c 0,-54.57 -44.336,-98.82 -98.906,-98.82 -54.574,0 -98.812,44.25 -98.812,98.82 v 298.39 H 640.73 v -298.31 c 0,-127.52 103.372,-230.89 230.887,-230.89 127.516,0 231.083,103.37 231.083,230.89 v 298.31 H 970.445" />
      <path
         id="path865"
         style="fill:#ffffff;fill-opacity:1;fill-rule:evenodd;stroke:none"
         d="m 1878.05,3426.53 -76.24,-198.36 92.19,-0.06 -1.88,-0.23 c 73,0 131.97,-59.17 131.97,-132.16 0,-72.99 -59.17,-132.16 -132.16,-132.16 -72.98,0 -132.15,59.17 -132.15,132.16 l -131.43,-0.25 c 0,-145.63 117.96,-263.42 263.58,-263.42 145.63,0 263.68,118.06 263.68,263.67 0,112.56 -70.33,208.64 -169.59,246.47 l 84.19,217.67 -407.83,-0.99 v -132.21 l 215.67,-0.13" />
      <path
         id="path867"
         style="fill:#ffffff;fill-opacity:1;fill-rule:evenodd;stroke:none"
         d="m 2668.22,3284.19 c -39.23,46.81 -98.13,76.57 -163.98,76.57 -43.12,0 -83.07,-12.76 -116.66,-34.72 l 0.49,34.59 h -131.64 v -528.18 h 131.64 l 0.6,297.51 c 0,54.57 44.04,98.8 98.62,98.8 54.57,0 98.59,-44.55 98.59,-99.13 v -297.18 h 132.37 l 0.06,297.51 c 0,54.57 44.04,98.8 98.61,98.8 54.57,0 98.81,-44.23 98.81,-98.8 l -0.22,-297.51 h 132.27 l 0.39,314.55 c 0,118.47 -96.48,213.76 -214.95,213.76 -66.32,0 -125.65,-29.29 -165,-76.57" />
      <path
         id="path869"
         style="fill:#ffffff;fill-opacity:1;fill-rule:evenodd;stroke:none"
         d="m 7079.17,3560.6 h 159.41 v -728.66 h -159.41 v 728.66" />
      <path
         id="path871"
         style="fill:#ffffff;fill-opacity:1;fill-rule:evenodd;stroke:none"
         d="m 7648.75,3560.6 h 159.41 v -728.66 h -159.41 v 728.66" />
      <path
         id="path873"
         style="fill:#ffffff;fill-opacity:1;fill-rule:evenodd;stroke:none"
         d="m 7363.96,3560.6 h 159.42 v -728.66 h -159.42 v 728.66" />
      <path
         id="path875"
         style="fill:#ffffff;fill-opacity:1;fill-rule:evenodd;stroke:none"
         d="m 4107.41,3895.59 0.32,324.04 h 54.3 l -0.15,-324.04 c 0,-83.39 67.59,-150.98 150.98,-150.98 83.38,0 152.62,67.6 152.62,150.98 l -0.9,324.04 h 54.31 l -0.12,-324.04 c 0,-113.47 -92.44,-205.45 -205.91,-205.45 -113.47,0 -205.45,91.98 -205.45,205.45" />
      <path
         id="path877"
         style="fill:#ffffff;fill-opacity:1;fill-rule:evenodd;stroke:none"
         d="m 4646.64,3918.88 c 0,55.29 43.93,100.1 99.21,100.1 55.28,0 100.1,-44.81 100.1,-100.1 l 0.33,-228.74 h 54.3 l 0.45,233.04 c 0,82.61 -67.98,149.87 -150.59,149.87 -40.41,0 -77.22,-16.71 -104.13,-42.76 v 43.31 h -54.3 v -383.46 h 54.3 l 0.33,228.74" />
      <path
         id="path879"
         style="fill:#ffffff;fill-opacity:1;fill-rule:evenodd;stroke:none"
         d="m 4951.08,4183.18 c 0,19.97 16.2,36.16 36.16,36.16 19.97,0 36.16,-16.19 36.16,-36.16 0,-19.96 -16.19,-36.15 -36.16,-36.15 -19.96,0 -36.16,16.19 -36.16,36.15 z m 9.01,-108.87 h 54.3 v -384.17 h -54.3 v 384.17" />
      <path
         id="path881"
         style="fill:#ffffff;fill-opacity:1;fill-rule:evenodd;stroke:none"
         d="m 5253.67,3690.14 -190.11,388.89 h 61.13 l 128.45,-264.96 125.51,264.96 h 61.12 l -186.1,-388.89" />
      <path
         id="path883"
         style="fill:#ffffff;fill-opacity:1;fill-rule:evenodd;stroke:none"
         d="m 5511.25,3910.12 c 12.71,63.15 68.05,110.71 134.93,110.71 66.71,0 122.37,-47.31 135.27,-110.21 z m 231.34,-126.67 c -24.85,-24.02 -59.12,-38.8 -96.41,-38.8 -67.08,0 -123,47.84 -135.49,111.26 l 326.22,-0.11 c 1.23,8.8 1.87,17.8 1.87,26.94 0,106.37 -86.22,192.6 -192.6,192.6 -106.37,0 -192.61,-86.23 -192.61,-192.6 0,-106.37 86.24,-192.6 192.61,-192.6 52.6,0 100.85,21.08 135.72,55.26 l -39.31,38.05" />
      <path
         id="path885"
         style="fill:#ffffff;fill-opacity:1;fill-rule:evenodd;stroke:none"
         d="m 6089.38,4069.55 c -10.42,2.29 -21.14,3.5 -32.21,3.5 -40.41,0 -77.23,-16.71 -104.14,-42.76 v 43.31 h -54.3 v -383.46 h 54.3 l 0.33,228.74 c 0,55.29 43.93,100.1 99.21,100.1 12.79,0 25.56,-2.4 36.81,-6.77 v 57.34" />
      <path
         id="path887"
         style="fill:#ffffff;fill-opacity:1;fill-rule:evenodd;stroke:none"
         d="m 7030.07,3882.74 c 0,76.26 61.82,138.09 138.08,138.09 76.26,0 138.09,-61.83 138.09,-138.09 0,-76.27 -61.83,-138.09 -138.09,-138.09 -76.26,0 -138.08,61.82 -138.08,138.09 z m 277.25,-133.82 c -35.01,-36.25 -84.79,-58.78 -139.17,-58.78 -106.37,0 -192.6,86.23 -192.6,192.6 0,106.37 86.23,192.6 192.6,192.6 54.71,0 104.13,-22.53 139.17,-59.16 v 59.16 h 54.53 v -382.29 h -54.53 v 55.87" />
      <path
         id="path889"
         style="fill:#ffffff;fill-opacity:1;fill-rule:evenodd;stroke:none"
         d="m 6416.82,4183.18 c 0,19.97 16.19,36.16 36.16,36.16 19.96,0 36.15,-16.19 36.15,-36.16 0,-19.96 -16.19,-36.15 -36.15,-36.15 -19.97,0 -36.16,16.19 -36.16,36.15 z m 9,-108.87 h 54.31 v -384.17 h -54.31 v 384.17" />
      <path
         id="path891"
         style="fill:#ffffff;fill-opacity:1;fill-rule:evenodd;stroke:none"
         d="m 7469.73,3882.74 c 0,76.26 61.81,138.09 138.08,138.09 76.26,0 138.09,-61.83 138.09,-138.09 0,-76.27 -61.83,-138.09 -138.09,-138.09 -76.27,0 -138.08,61.82 -138.08,138.09 z m 277.25,-133.82 c -35.02,-36.25 -84.79,-58.78 -139.17,-58.78 -106.37,0 -192.6,86.23 -192.6,192.6 0,106.37 86.23,192.6 192.6,192.6 54.71,0 104.11,-22.53 139.17,-59.16 v 205.36 h 54.52 v -528.49 h -54.52 v 55.87" />
      <path
         id="path893"
         style="fill:#ffffff;fill-opacity:1;fill-rule:evenodd;stroke:none"
         d="m 6590.41,3882.74 c 0,76.26 61.83,138.09 138.09,138.09 76.27,0 138.08,-61.83 138.08,-138.09 0,-76.27 -61.81,-138.09 -138.08,-138.09 -76.26,0 -138.09,61.82 -138.09,138.09 z m 277.27,-133.82 c -35.02,-36.25 -84.8,-58.78 -139.18,-58.78 -106.37,0 -192.6,86.23 -192.6,192.6 0,106.37 86.23,192.6 192.6,192.6 54.7,0 104.12,-22.53 139.18,-59.16 v 205.36 h 54.52 v -528.49 h -54.52 v 55.87" />
      <path
         id="path895"
         style="fill:#ffffff;fill-opacity:1;fill-rule:evenodd;stroke:none"
         d="m 6194.52,3977.92 c -2.38,26.12 20.03,44.55 44.78,44.55 31.45,-0.53 52.88,-17.81 63.77,-40.58 l 44.38,25.25 c -22.89,44.73 -60.03,69.11 -104.22,69.11 -57.8,0 -104.74,-41.21 -106.51,-98.54 0,-49.62 29.93,-70.15 70.24,-91.86 l 78.14,-41.87 c 18.84,-12.56 26.64,-23.34 26.64,-45.77 -1.38,-27.22 -27.38,-52.89 -60.79,-52.89 -38.6,0 -63.91,22.45 -80.96,53.85 l -50.32,-24.56 c 19.65,-55.21 72.38,-84.47 125.12,-84.47 66.07,0 122.99,48.89 125.27,115.73 0,57.37 -41.24,82.55 -83.43,104.33 -43.57,24.22 -91.2,42.77 -92.11,67.72" />
      <path
         id="path897"
         style="fill:#ffffff;fill-opacity:1;fill-rule:evenodd;stroke:none"
         d="m 4162.13,2297.11 c 0,76.27 61.83,138.09 138.09,138.09 76.26,0 138.09,-61.82 138.09,-138.09 0,-76.26 -61.83,-138.09 -138.09,-138.09 -76.26,0 -138.09,61.83 -138.09,138.09 z m 277.26,-133.82 c -35.01,-36.24 -84.79,-58.78 -139.17,-58.78 -106.37,0 -192.6,86.23 -192.6,192.6 0,106.38 86.23,192.61 192.6,192.61 54.7,0 104.12,-22.53 139.17,-59.16 v 205.36 h 54.53 v -528.49 h -54.53 v 55.86" />
      <path
         id="path899"
         style="fill:#ffffff;fill-opacity:1;fill-rule:evenodd;stroke:none"
         d="m 4639.03,2324.49 c 12.71,63.16 68.04,110.71 134.93,110.71 66.7,0 122.37,-47.31 135.27,-110.21 z m 231.33,-126.67 c -24.84,-24.01 -59.12,-38.8 -96.4,-38.8 -67.08,0 -123,47.85 -135.48,111.26 l 326.21,-0.1 c 1.24,8.79 1.87,17.8 1.87,26.93 0,106.38 -86.23,192.61 -192.6,192.61 -106.38,0 -192.6,-86.23 -192.6,-192.61 0,-106.37 86.22,-192.6 192.6,-192.6 52.6,0 100.84,21.09 135.73,55.27 l -39.33,38.04" />
      <path
         id="path901"
         style="fill:#ffffff;fill-opacity:1;fill-rule:evenodd;stroke:none"
         d="m 6055.33,2297.11 c 0,76.27 61.83,138.09 138.09,138.09 76.27,0 138.08,-61.82 138.08,-138.09 0,-76.26 -61.81,-138.09 -138.08,-138.09 -76.26,0 -138.09,61.83 -138.09,138.09 z m 277.27,-133.82 c -35.03,-36.24 -84.8,-58.78 -139.18,-58.78 -106.37,0 -192.61,86.23 -192.61,192.6 0,106.38 86.24,192.61 192.61,192.61 54.71,0 104.11,-22.53 139.18,-59.16 v 59.15 h 54.51 v -382.28 h -54.51 v 55.86" />
      <path
         id="path903"
         style="fill:#ffffff;fill-opacity:1;fill-rule:evenodd;stroke:none"
         d="m 6529.07,2297.11 c 0,76.27 61.83,138.09 138.09,138.09 76.26,0 138.08,-61.82 138.08,-138.09 0,-76.26 -61.82,-138.09 -138.08,-138.09 -76.26,0 -138.09,61.83 -138.09,138.09 z m 277.26,-133.82 c -35.02,-36.24 -84.79,-58.78 -139.17,-58.78 -106.38,0 -192.61,86.23 -192.61,192.6 0,106.38 86.23,192.61 192.61,192.61 54.71,0 104.11,-22.53 139.17,-59.16 v 205.36 h 54.52 v -528.49 h -54.52 v 55.86" />
      <path
         id="path905"
         style="fill:#ffffff;fill-opacity:1;fill-rule:evenodd;stroke:none"
         d="m 7167.54,2483.93 c -10.41,2.29 -21.14,3.49 -32.21,3.49 -40.42,0 -77.22,-16.7 -104.14,-42.75 v 43.31 h -54.3 v -383.47 h 54.3 l 0.33,228.75 c 0,55.28 43.92,100.1 99.21,100.1 12.8,0 25.56,-2.4 36.81,-6.78 v 57.35" />
      <path
         id="path907"
         style="fill:#ffffff;fill-opacity:1;fill-rule:evenodd;stroke:none"
         d="m 7254.98,2597.56 c 0,19.97 16.19,36.15 36.15,36.15 19.97,0 36.16,-16.18 36.16,-36.15 0,-19.96 -16.19,-36.15 -36.16,-36.15 -19.96,0 -36.15,16.19 -36.15,36.15 z m 9,-108.88 h 54.3 v -384.17 h -54.3 v 384.17" />
      <path
         id="path909"
         style="fill:#ffffff;fill-opacity:1;fill-rule:evenodd;stroke:none"
         d="m 7469.26,2297.11 c 0,76.27 61.81,138.09 138.08,138.09 76.26,0 138.09,-61.82 138.09,-138.09 0,-76.26 -61.83,-138.09 -138.09,-138.09 -76.27,0 -138.08,61.83 -138.08,138.09 z m 277.25,-133.82 c -35.02,-36.24 -84.79,-58.78 -139.17,-58.78 -106.37,0 -192.6,86.23 -192.6,192.6 0,106.38 86.23,192.61 192.6,192.61 54.71,0 104.12,-22.53 139.17,-59.16 v 205.36 h 54.53 v -528.49 h -54.53 v 55.86" />
      <path
         id="path911"
         style="fill:#ffffff;fill-opacity:1;fill-rule:evenodd;stroke:none"
         d="m 5569.49,2225.15 205.36,419.57 138.53,-533.68 h -57.31 l -97.54,377.78 -189.07,-387.6 -189,387.6 -97.56,-377.78 h -57.29 l 138.51,533.68 205.37,-419.57 v 0" />
    </g>
  </g>
</svg>
